<svg width="580" height="400" xmlns="http://www.w3.org/2000/svg">
 <!-- Created with Method Draw - http://github.com/duopixel/Method-Draw/ -->
 <g>
  <title>background</title>
  <rect fill="none" id="canvas_background" height="402" width="582" y="-1" x="-1"/>
  <g display="none" overflow="visible" y="0" x="0" height="100%" width="100%" id="canvasGrid">
   <rect fill="url(#gridpattern)" stroke-width="0" y="0" x="0" height="100%" width="100%"/>
  </g>
 </g>
 <g>
  <title>Layer 1</title>
  <ellipse ry="36.5" rx="37" id="svg_1" cy="167" cx="95.5" stroke-width="1.5" stroke="#000" fill="rgb(170, 170,170)"/>
  <ellipse ry="36.5" rx="37" id="svg_2" cy="250" cx="96.5" stroke-width="1.5" stroke="#000" fill="rgb(170, 170,170)"/>
  <ellipse ry="36.5" rx="37" id="svg_3" cy="86" cx="93.5" stroke-width="1.5" stroke="#000" fill="rgb(170, 170,170)"/>
  <ellipse ry="36.5" rx="37" id="svg_4" cy="332" cx="94.5" stroke-width="1.5" stroke="#000" fill="rgb(170, 170,170)"/>
  <path id="svg_14" d="m153.161057,90.006638l3.96347,-4.200027l-7.663345,0l-7.663727,0l0,-2.599945l0,-2.599945l7.575607,0c4.166794,0 7.575607,-0.131927 7.575607,-0.292892c0,-0.161133 -1.65863,-2.051086 -3.68576,-4.200027l-3.686142,-3.907135l3.406906,0l3.407288,0l5.203247,5.505203l5.203247,5.505371l-5.213165,5.494629l-5.213547,5.494797l-3.586578,0l-3.58696,0l3.963852,-4.200027l0,0z" fill-opacity="null" stroke-opacity="null" stroke-width="1.5" stroke="#000" fill="rgb(170, 170,170)"/>
  <path id="svg_15" d="m158.161057,173.006638l3.96347,-4.200027l-7.663345,0l-7.663727,0l0,-2.599945l0,-2.599945l7.575607,0c4.166794,0 7.575607,-0.131927 7.575607,-0.292892c0,-0.161133 -1.65863,-2.051086 -3.68576,-4.200027l-3.686142,-3.907135l3.406906,0l3.407288,0l5.203247,5.505203l5.203247,5.505371l-5.213165,5.494629l-5.213547,5.494797l-3.586578,0l-3.58696,0l3.963852,-4.200027l0,0z" fill-opacity="null" stroke-opacity="null" stroke-width="1.5" stroke="#000" fill="rgb(170, 170,170)"/>
  <path id="svg_16" d="m159.161057,255.006638l3.96347,-4.200027l-7.663345,0l-7.663727,0l0,-2.599945l0,-2.599945l7.575607,0c4.166794,0 7.575607,-0.131927 7.575607,-0.292892c0,-0.161133 -1.65863,-2.051086 -3.68576,-4.200027l-3.686142,-3.907135l3.406906,0l3.407288,0l5.203247,5.505203l5.203247,5.505371l-5.213165,5.494629l-5.213547,5.494797l-3.586578,0l-3.58696,0l3.963852,-4.200027l0,0z" fill-opacity="null" stroke-opacity="null" stroke-width="1.5" stroke="#000" fill="rgb(170, 170,170)"/>
  <path id="svg_17" d="m160.161057,337.006622l3.96347,-4.200012l-7.663345,0l-7.663727,0l0,-2.599945l0,-2.599945l7.575607,0c4.166794,0 7.575607,-0.131927 7.575607,-0.292877c0,-0.161163 -1.65863,-2.051086 -3.68576,-4.200043l-3.686142,-3.907135l3.406906,0l3.407288,0l5.203247,5.505188l5.203247,5.505402l-5.213165,5.494598l-5.213547,5.494812l-3.586578,0l-3.58696,0l3.963852,-4.200043l0,0z" fill-opacity="null" stroke-opacity="null" stroke-width="1.5" stroke="#000" fill="rgb(170, 170,170)"/>
  <path stroke="#000" id="svg_22" d="m204.481628,142.490677c-1.195297,8.058594 -5.32106,54.212402 -0.539795,57.509094c4.781265,3.296707 31.438263,1.46521 42.427338,0.366302c5.494507,-1.831512 5.211853,-3.66301 6.375031,-3.296692c-3.598755,-12.820572 -4.325104,-36.996246 -0.051468,-54.578705c-13.308884,-2.197754 -29.433289,-2.564056 -48.211105,0z" fill-opacity="null" stroke-opacity="null" stroke-width="1.5" fill="rgb(170, 170,170)"/>
  <path stroke="#000" id="svg_23" d="m269.316711,141.758072c-1.195282,8.058594 -5.321045,54.212402 -0.539795,57.509094c4.781281,3.296707 31.438263,1.46521 42.427338,0.366302c5.494507,-1.831512 5.211853,-3.66301 6.375031,-3.296692c-3.598755,-12.820572 -4.325104,-36.996246 -0.051453,-54.578705c-13.308899,-2.197754 -29.433289,-2.564056 -48.211121,0z" fill-opacity="null" stroke-opacity="null" stroke-width="1.5" fill="rgb(170, 170,170)"/>
  <path stroke="#000" id="svg_24" d="m346.972321,139.926575c-1.195282,8.058594 -5.321075,54.212402 -0.539795,57.509094c4.781281,3.296707 31.438263,1.46521 42.427338,0.366302c5.494507,-1.831512 5.211853,-3.66301 6.375031,-3.296692c-3.598755,-12.820572 -4.325104,-36.996246 -0.051453,-54.578705c-13.308899,-2.197754 -29.433319,-2.564056 -48.211121,0z" fill-opacity="null" stroke-opacity="null" stroke-width="1.5" fill="rgb(170, 170,170)"/>
  <path stroke="#000" id="svg_25" d="m194.225235,223.076675c-1.195297,8.058578 -5.32106,54.212387 -0.539795,57.509079c4.781265,3.296722 31.438263,1.46521 42.427338,0.366302c5.494507,-1.831512 5.211853,-3.662994 6.375031,-3.296692c-3.598755,-12.820557 -4.325104,-36.996231 -0.051468,-54.57869c-13.308884,-2.197769 -29.433289,-2.564072 -48.211105,0z" fill-opacity="null" stroke-opacity="null" stroke-width="1.5" fill="rgb(170, 170,170)"/>
  <path stroke="#000" id="svg_26" d="m270.049316,220.878876c-1.195282,8.058594 -5.321045,54.212402 -0.539795,57.509094c4.781281,3.296692 31.438263,1.46521 42.427338,0.366302c5.494507,-1.831512 5.211853,-3.663025 6.375031,-3.296692c-3.598755,-12.820587 -4.325104,-36.996262 -0.051453,-54.578705c-13.308899,-2.197754 -29.433289,-2.564056 -48.211121,0z" fill-opacity="null" stroke-opacity="null" stroke-width="1.5" fill="rgb(170, 170,170)"/>
  <path stroke="#000" id="svg_27" d="m340.012634,219.413666c-1.195313,8.058609 -5.321075,54.212402 -0.539795,57.509094c4.78125,3.296722 31.438232,1.46521 42.427338,0.366302c5.494476,-1.831512 5.211823,-3.662994 6.375031,-3.296692c-3.598785,-12.820557 -4.325134,-36.996246 -0.051483,-54.578705c-13.308868,-2.197754 -29.433289,-2.564056 -48.21109,0z" fill-opacity="null" stroke-opacity="null" stroke-width="1.5" fill="rgb(170, 170,170)"/>
  <path stroke="#000" id="svg_28" d="m404.847717,219.047363c-1.195313,8.058594 -5.321045,54.212433 -0.539795,57.509125c4.781281,3.296692 31.438263,1.46521 42.427338,0.366302c5.494507,-1.831512 5.211853,-3.663025 6.375031,-3.296722c-3.598755,-12.820557 -4.325104,-36.996246 -0.051483,-54.578705c-13.308868,-2.197754 -29.433289,-2.564056 -48.21109,0z" fill-opacity="null" stroke-opacity="null" stroke-width="1.5" fill="rgb(170, 170,170)"/>
  <path stroke="#000" id="svg_29" d="m199.719727,302.197449c-1.195297,8.058594 -5.32106,54.212402 -0.539795,57.509094c4.781265,3.296722 31.438263,1.46524 42.427338,0.366333c5.494507,-1.831543 5.211853,-3.663025 6.375031,-3.296722c-3.598755,-12.820557 -4.325104,-36.996246 -0.051468,-54.578705c-13.308884,-2.197754 -29.433289,-2.564026 -48.211105,0z" fill-opacity="null" stroke-opacity="null" stroke-width="1.5" fill="rgb(170, 170,170)"/>
  <path stroke="#000" id="svg_30" d="m267.485229,301.831146c-1.195313,8.058594 -5.321075,54.212402 -0.539795,57.509094c4.78125,3.296722 31.438263,1.46524 42.427338,0.366333c5.494507,-1.831543 5.211853,-3.663025 6.375031,-3.296722c-3.598755,-12.820557 -4.325104,-36.996246 -0.051483,-54.578705c-13.308868,-2.197754 -29.433289,-2.564026 -48.21109,0z" fill-opacity="null" stroke-opacity="null" stroke-width="1.5" fill="rgb(170, 170,170)"/>
  <path stroke="#000" id="svg_31" d="m275.910126,323.809143c-1.195313,8.058594 -5.321075,54.212402 -0.539795,57.509094c4.78125,3.296722 31.438263,1.46524 42.427338,0.366333c5.494507,-1.831543 5.211853,-3.663025 6.375031,-3.296722c-3.598755,-12.820557 -4.325104,-36.996246 -0.051483,-54.578705c-13.308868,-2.197754 -29.433289,-2.564026 -48.21109,0z" fill-opacity="null" stroke-opacity="null" stroke-width="1.5" fill="rgb(170, 170,170)"/>
  <path stroke="#000" id="svg_32" d="m335.617035,299.999634c-1.195313,8.058624 -5.321075,54.212402 -0.539795,57.509094c4.78125,3.296753 31.438232,1.465271 42.427338,0.366333c5.494507,-1.831543 5.211853,-3.663025 6.375031,-3.296722c-3.598785,-12.820526 -4.325104,-36.996246 -0.051483,-54.578705c-13.308899,-2.197723 -29.433289,-2.564026 -48.21109,0z" fill-opacity="null" stroke-opacity="null" stroke-width="1.5" fill="rgb(170, 170,170)"/>
  <path stroke="#000" id="svg_33" d="m282.50351,340.658936c-1.195282,8.058594 -5.321045,54.212402 -0.539795,57.509094c4.781281,3.296722 31.438263,1.46524 42.427338,0.366333c5.494507,-1.831543 5.211853,-3.663025 6.375031,-3.296722c-3.598755,-12.820557 -4.325104,-36.996246 -0.051453,-54.578705c-13.308899,-2.197754 -29.433289,-2.564026 -48.211121,0z" fill-opacity="null" stroke-opacity="null" stroke-width="1.5" fill="rgb(170, 170,170)"/>
  <path stroke="#000" id="svg_34" d="m397.888,297.069244c-1.195313,8.058594 -5.321075,54.212402 -0.539795,57.509094c4.781281,3.296722 31.438263,1.46524 42.427338,0.366333c5.494507,-1.831543 5.211853,-3.663025 6.375031,-3.296722c-3.598755,-12.820557 -4.325104,-36.996246 -0.051453,-54.578705c-13.308899,-2.197754 -29.433289,-2.564026 -48.211121,0z" fill-opacity="null" stroke-opacity="null" stroke-width="1.5" fill="rgb(170, 170,170)"/>
  <path stroke="#000" id="svg_35" d="m342.576721,316.483154c-1.195313,8.058594 -5.321075,54.212402 -0.539795,57.509094c4.781281,3.296722 31.438263,1.46524 42.427338,0.366333c5.494507,-1.831543 5.211853,-3.663025 6.375031,-3.296722c-3.598755,-12.820557 -4.325104,-36.996246 -0.051453,-54.578705c-13.308899,-2.197754 -29.433289,-2.564026 -48.211121,0z" fill-opacity="null" stroke-opacity="null" stroke-width="1.5" fill="rgb(170, 170,170)"/>
  <path stroke="#000" id="svg_36" d="m200.818634,322.343933c-1.195297,8.058594 -5.321075,54.212402 -0.539795,57.509094c4.781265,3.296722 31.438263,1.46524 42.427338,0.366333c5.494507,-1.831543 5.211853,-3.663025 6.375031,-3.296722c-3.598755,-12.820557 -4.325119,-36.996246 -0.051468,-54.578705c-13.308899,-2.197754 -29.433304,-2.564026 -48.211105,0z" fill-opacity="null" stroke-opacity="null" stroke-width="1.5" fill="rgb(170, 170,170)"/>
  <path stroke="#000" id="svg_37" d="m283.236359,52.380173c-1.195313,8.058594 -5.321075,54.212402 -0.539795,57.509094c4.78125,3.296722 31.438263,1.46524 42.427338,0.366333c5.494507,-1.831543 5.211853,-3.663025 6.375031,-3.296722c-3.598755,-12.820557 -4.325104,-36.996246 -0.051483,-54.578705c-13.308868,-2.197754 -29.433289,-2.564026 -48.21109,0z" fill-opacity="null" stroke-opacity="null" stroke-width="1.5" fill="rgb(170, 170,170)"/>
  <text id="textObjectif" transform="rotate(-13.9516 94.1016 84.7344)" xml:space="preserve" text-anchor="start" font-family="Helvetica, Arial, sans-serif" font-size="14" id="svg_5" y="89.5" x="70.5" stroke-width="0" stroke="#000000" fill="#000"></text>
  <text id="textQui" transform="rotate(-16.5178 82.3359 166.734)" xml:space="preserve" text-anchor="start" font-family="Helvetica, Arial, sans-serif" font-size="14" id="svg_6" y="171.5" x="71.5" fill-opacity="null" stroke-opacity="null" stroke-width="0" stroke="#000" fill="#000000"></text>
  <text id="textQuoi" transform="rotate(-17.1872 86.2031 250.734)" xml:space="preserve" text-anchor="start" font-family="Helvetica, Arial, sans-serif" font-size="14" id="svg_7" y="255.5" x="71.5" fill-opacity="null" stroke-opacity="null" stroke-width="0" stroke="#000" fill="#000000"></text>
  <text id="textComment" transform="rotate(-12.6669 94.6719 331.734)" xml:space="preserve" text-anchor="start" font-family="Helvetica, Arial, sans-serif" font-size="14" id="svg_8" y="336.5" x="64.5" fill-opacity="null" stroke-opacity="null" stroke-width="0" stroke="#000" fill="#000000"></text>
 </g>
</svg>