<svg id="postit" xmlns="http://www.w3.org/2000/svg" xmlns:xlink="http://www.w3.org/1999/xlink" width="800px" height="600px" viewBox="0 0 1060 560" preserveAspectRatio="xMidYMid meet">
<g>
<path d="M 83 88 c 42.5548 1.78514 85.7959 2.09625 119 2 c -6.79585 37.9037 -7.14668 89.8337 2 108 c -42.8533 8.16632 -84.8444 6.3347 -119 4 c -7.15557 -31.3347 -5.93874 -91.3926 -2 -114 Z" stroke="black" id="p14" style="fill: none; stroke-width: 2px;" transform="matrix(1,0,0,1,220,-100)"></path>
<path d="M 83 88 c 42.5548 1.78514 85.7959 2.09625 119 2 c -6.79585 37.9037 -7.14668 89.8337 2 108 c -42.8533 8.16632 -84.8444 6.3347 -119 4 c -7.15557 -31.3347 -5.93874 -91.3926 -2 -114 Z" stroke="black" id="p13" style="fill: none; stroke-width: 2px;" transform="matrix(1,0,0,1,590,405)"></path>
<path d="M 83 88 c 42.5548 1.78514 85.7959 2.09625 119 2 c -6.79585 37.9037 -7.14668 89.8337 2 108 c -42.8533 8.16632 -84.8444 6.3347 -119 4 c -7.15557 -31.3347 -5.93874 -91.3926 -2 -114 Z" stroke="black" id="p12" style="fill: none; stroke-width: 2px;" transform="matrix(1,0,0,1,500,395)"></path>
<path d="M 83 88 c 42.5548 1.78514 85.7959 2.09625 119 2 c -6.79585 37.9037 -7.14668 89.8337 2 108 c -42.8533 8.16632 -84.8444 6.3347 -119 4 c -7.15557 -31.3347 -5.93874 -91.3926 -2 -114 Z" stroke="black" id="p11" style="fill: none; stroke-width: 2px;" transform="matrix(1,0,0,1,370,385)"></path>
<path d="M 83 88 c 42.5548 1.78514 85.7959 2.09625 119 2 c -6.79585 37.9037 -7.14668 89.8337 2 108 c -42.8533 8.16632 -84.8444 6.3347 -119 4 c -7.15557 -31.3347 -5.93874 -91.3926 -2 -114 Z" stroke="black" id="p10" style="fill: none; stroke-width: 2px;" transform="matrix(1,0,0,1,250,390)"></path>
<path d="M 83 88 c 42.5548 1.78514 85.7959 2.09625 119 2 c -6.79585 37.9037 -7.14668 89.8337 2 108 c -42.8533 8.16632 -84.8444 6.3347 -119 4 c -7.15557 -31.3347 -5.93874 -91.3926 -2 -114 Z" stroke="black" id="p1" style="fill: none; stroke-width: 2px;" transform="matrix(1,0,0,1,100,410)"></path><path d="M 83 88 c 42.5548 1.78514 85.7959 2.09625 119 2 c -6.79585 37.9037 -7.14668 89.8337 2 108 c -42.8533 8.16632 -84.8444 6.3347 -119 4 c -7.15557 -31.3347 -5.93874 -91.3926 -2 -114 Z" stroke="black" id="p2" style="fill: none; stroke-width: 2px;" transform="matrix(1,0,0,1,620,250)"></path><path d="M 83 88 c 42.5548 1.78514 85.7959 2.09625 119 2 c -6.79585 37.9037 -7.14668 89.8337 2 108 c -42.8533 8.16632 -84.8444 6.3347 -119 4 c -7.15557 -31.3347 -5.93874 -91.3926 -2 -114 Z" stroke="black" id="p3" style="fill: none; stroke-width: 2px;" transform="matrix(1,0,0,1,470,255)"></path><path d="M 83 88 c 42.5548 1.78514 85.7959 2.09625 119 2 c -6.79585 37.9037 -7.14668 89.8337 2 108 c -42.8533 8.16632 -84.8444 6.3347 -119 4 c -7.15557 -31.3347 -5.93874 -91.3926 -2 -114 Z" stroke="black" id="p4" style="fill: none; stroke-width: 2px;" transform="matrix(1,0,0,1,380,240)"></path><path d="M 83 88 c 42.5548 1.78514 85.7959 2.09625 119 2 c -6.79585 37.9037 -7.14668 89.8337 2 108 c -42.8533 8.16632 -84.8444 6.3347 -119 4 c -7.15557 -31.3347 -5.93874 -91.3926 -2 -114 Z" stroke="black" id="p5" style="fill: none; stroke-width: 2px;" transform="matrix(1,0,0,1,240,250)"></path><path d="M 83 88 c 42.5548 1.78514 85.7959 2.09625 119 2 c -6.79585 37.9037 -7.14668 89.8337 2 108 c -42.8533 8.16632 -84.8444 6.3347 -119 4 c -7.15557 -31.3347 -5.93874 -91.3926 -2 -114 Z" stroke="black" id="p6" style="fill: none; stroke-width: 2px;" transform="matrix(1,0,0,1,100,235)"></path><path d="M 83 88 c 42.5548 1.78514 85.7959 2.09625 119 2 c -6.79585 37.9037 -7.14668 89.8337 2 108 c -42.8533 8.16632 -84.8444 6.3347 -119 4 c -7.15557 -31.3347 -5.93874 -91.3926 -2 -114 Z" stroke="black" id="p7" style="fill: none; stroke-width: 2px;" transform="matrix(1,0,0,1,390,90)"></path><path d="M 83 88 c 42.5548 1.78514 85.7959 2.09625 119 2 c -6.79585 37.9037 -7.14668 89.8337 2 108 c -42.8533 8.16632 -84.8444 6.3347 -119 4 c -7.15557 -31.3347 -5.93874 -91.3926 -2 -114 Z" stroke="black" id="p8" style="fill: none; stroke-width: 2px;" transform="matrix(1,0,0,1,220,75)"></path><path d="M 83 88 c 42.5548 1.78514 85.7959 2.09625 119 2 c -6.79585 37.9037 -7.14668 89.8337 2 108 c -42.8533 8.16632 -84.8444 6.3347 -119 4 c -7.15557 -31.3347 -5.93874 -91.3926 -2 -114 Z" stroke="black" id="p9" style="fill: none; stroke-width: 2px;" transform="matrix(1,0,0,1,100,80)"></path>
<circle id="c1" cx="100" cy="50" r="50" fill="none" stroke="#000000" style="stroke-width: 2px;"></circle>
<circle id="c2" cx="80" cy="220" r="50" fill="none" stroke="#000000" style="stroke-width: 2px;"></circle>
<circle id="c3" cx="85" cy="390" r="50" fill="none" stroke="#000000" style="stroke-width: 2px;"></circle>
<circle id="c4" cx="90" cy="550" r="50" fill="none" stroke="#000000" style="stroke-width: 2px;"></circle>
</g>
</svg>